<svg id="Eyes" xmlns="http://www.w3.org/2000/svg" viewBox="0 0 593 527"><defs><style>.cls-1{fill:#fff;}</style></defs><path id="Right_Eye" data-name="Right Eye" class="cls-1" d="M483.3,226.38c-.47,33.39-26.23,58.36-60,57.57-31.18-.74-57-27.29-55.47-60.61a57.79,57.79,0,0,1,59.5-54.64C458.29,169.61,483.74,195.52,483.3,226.38Zm-9.28,0a26,26,0,1,0-52.09.11c0,14.22,11.87,26.21,25.87,26.22A26.33,26.33,0,0,0,474,226.4Z"/><path id="Left_Eye" data-name="Left Eye" class="cls-1" d="M308.5,226.44c-.55,33.43-26.27,58.33-60.06,57.51-31.18-.77-56.95-27.32-55.41-60.67a57.78,57.78,0,0,1,59.55-54.58C283.54,169.64,309,195.61,308.5,226.44Zm-9.28-.16a26.05,26.05,0,1,0-52.1.35c.06,14.16,12.09,26.24,26,26.1A26.33,26.33,0,0,0,299.22,226.28Z"/></svg>